PathFileType	4	(X/Y/Z)	Walk4.trc
DataRate	CameraRate	NumFrames	NumMarkers	Units	OrigDataRate	OrigDataStartFrame	OrigNumFrames
200.000000	200.000000	8	61	mm	200.000000	399	718
Frame#	Times		RCAR		LToe		LLFC		RWRU		RACR1		RFA1		RFHD		LUA1		LFA1		LCAR		RWRR		LElbow		STRN		RLFC		LACR1		LWRU		RTH3		RTB2		LWRR		C7		LFHD		RToe		RMFC		RMT1		RTH2		RMT5		LTH3		LPSI		RPSI		RTB3		LTH4		LTB1		RASI		RCAL		RTB1		LTB3		LTB4		CLAV		LTH2		LTH1		LMT5		RTB4		LTB2		LMT1		RLMAL		RMMAL		LBHD		LMFC		RBHD		RUA1		RElbow		LLMAL		RBack		LASI		RTH1		RTH4		T10		LCAL		LElbowM		LMMAL		RElbowM
			X1	Y1	Z1	X2	Y2	Z2	X3	Y3	Z3	X4	Y4	Z4	X5	Y5	Z5	X6	Y6	Z6	X7	Y7	Z7	X8	Y8	Z8	X9	Y9	Z9	X10	Y10	Z10	X11	Y11	Z11	X12	Y12	Z12	X13	Y13	Z13	X14	Y14	Z14	X15	Y15	Z15	X16	Y16	Z16	X17	Y17	Z17	X18	Y18	Z18	X19	Y19	Z19	X20	Y20	Z20	X21	Y21	Z21	X22	Y22	Z22	X23	Y23	Z23	X24	Y24	Z24	X25	Y25	Z25	X26	Y26	Z26	X27	Y27	Z27	X28	Y28	Z28	X29	Y29	Z29	X30	Y30	Z30	X31	Y31	Z31	X32	Y32	Z32	X33	Y33	Z33	X34	Y34	Z34	X35	Y35	Z35	X36	Y36	Z36	X37	Y37	Z37	X38	Y38	Z38	X39	Y39	Z39	X40	Y40	Z40	X41	Y41	Z41	X42	Y42	Z42	X43	Y43	Z43	X44	Y44	Z44	X45	Y45	Z45	X46	Y46	Z46	X47	Y47	Z47	X48	Y48	Z48	X49	Y49	Z49	X50	Y50	Z50	X51	Y51	Z51	X52	Y52	Z52	X53	Y53	Z53	X54	Y54	Z54	X55	Y55	Z55	X56	Y56	Z56	X57	Y57	Z57	X58	Y58	Z58	X59	Y59	Z59	X60	Y60	Z60	X61	Y61	Z61

399	1.995	-294.56	867.42	375.52	-127.31	31.823	-57.752	-335.72	506.66	-150.2	-289.25	905.68	311.16	-387.83	1500.2	192.46	-350.94	1040.6	335.44	-243.47	1678.4	69.563	-453.5	1345.5	-257.19	-421.5	1047.9	-327.07	-383.46	883.67	-350.95	-356.61	898.86	368.65	-500.08	1178.7	-301.51	-283.03	1294.8	-7.8712	-475.9	500.58	206.44	-429.19	1528.2	-175.83	-454.05	918.96	-337.45	-476.15	623.95	206.11	-618.59	316.02	182.04	-371.01	920.37	-294.92	-511.45	1556.2	26.809	-246.65	1681.2	-35.372	-741.13	42.156	119.39	-476.02	485.37	58.049	-757.47	92.945	105.02	-421.83	713.32	209.58	-806.07	105.07	189.75	-347.71	650.7	-177.54	-580.93	1073.4	-61.973	-584.04	1062.3	47.594	-691.36	275.19	115.76	-370.75	732.43	-198.12	-291.64	364.56	-42.278	-368.19	1032.4	156.95	-879.34	274.3	120.71	-545.05	366.9	124.21	-303.36	193.87	-33.425	-299.38	279.67	-37.577	-347.59	1466.3	-9.2715	-315.53	751.71	-189.45	-394.06	814.71	-214.41	-229.73	30.523	-126.29	-618.96	320.43	119.69	-273.47	274.3	-95.405	-182.82	45.243	-39.009	-822.22	243.35	164.26	-780.94	233.43	71.619	-413.66	1694.3	-49.501	-329.46	509.51	-9.9109	-412.93	1695.3	92.308	-402.43	1322.4	268.54	-443.78	1164.9	319.96	-323.87	94.11	7.009	-560.51	1438.8	147.3	-353.05	1033.4	-155.69	-486.82	795.48	214.83	-482.19	707.16	210.43	-562.83	1199.9	0.23866	-408.44	44.196	-51.303	-521.51	1150.2	-213.47	-344.31	67.247	-93.715	-471.96	1134	230.63
400	2	-292.35	867.32	375.27	-127.33	31.713	-57.934	-333.4	506.68	-150.5	-286.67	905.48	310.89	-382.32	1501	192.04	-347.48	1040.9	334.93	-237.83	1679.1	69.191	-447.77	1346.3	-257.92	-414.32	1049.2	-327.74	-374.67	885.48	-351.3	-354.19	899.18	368.25	-494.02	1179.5	-302.66	-277.68	1295.3	-8.2824	-463.87	501.13	205.91	-423.44	1528.8	-176.27	-445.65	919.92	-337.82	-465.86	624.02	205.64	-606.99	317.45	181.66	-362.57	922.42	-295.36	-505.8	1557	26.275	-240.97	1681.9	-35.747	-729.75	44.101	121.34	-464.41	485.95	57.419	-746.04	95.026	106.34	-412.8	714.16	209.13	-794.45	107.95	191.05	-344.33	651.02	-177.86	-575.99	1074.3	-62.127	-578.93	1062.9	47.409	-680.09	276.77	115.58	-366.89	732.88	-198.35	-290.22	364.38	-42.512	-363.24	1033	156.86	-868.34	276.33	120.64	-533.32	367.91	123.68	-302.79	193.72	-33.511	-298.38	279.53	-37.734	-342.05	1466.8	-9.7104	-311.63	751.86	-189.59	-389.77	815.3	-214.62	-229.77	30.494	-126.34	-607.47	321.74	119.29	-272.45	273.98	-95.533	-182.8	45.252	-39.132	-810.99	245.67	164.29	-769.84	235.29	71.621	-407.99	1695	-49.937	-327.3	509.41	-10.276	-407.29	1695.9	91.885	-397.57	1323	267.98	-439.52	1165.7	319.21	-323.75	94.136	6.9637	-555.14	1439.8	146.55	-348.03	1033.9	-155.75	-478.85	795.42	214.47	-473.04	707.16	210.06	-557.58	1200.7	-0.14812	-408.45	44.2	-51.307	-515.68	1150.8	-214.72	-344.27	67.231	-93.755	-467.75	1134.9	229.85
401	2.005	-290.11	867.24	375.04	-127.35	31.626	-58.108	-331.12	506.69	-150.79	-284.1	905.3	310.63	-376.85	1501.7	191.65	-344.04	1041.2	334.45	-232.2	1679.7	68.825	-442.02	1347	-258.61	-407.11	1050.5	-328.37	-365.86	887.31	-351.63	-351.77	899.52	367.86	-487.91	1180.2	-303.79	-272.36	1295.8	-8.6511	-451.9	501.81	205.37	-417.71	1529.5	-176.68	-437.23	920.89	-338.19	-455.59	624.21	205.14	-595.28	318.85	181.31	-354.15	924.47	-295.77	-500.17	1557.7	25.757	-235.31	1682.5	-36.116	-717.71	46.006	123.09	-452.83	486.62	56.782	-734.1	96.953	107.54	-403.81	715.08	208.7	-782.34	110.5	192.25	-340.99	651.34	-178.18	-571.08	1075.2	-62.239	-573.84	1063.5	47.267	-668.6	278.17	115.42	-363.06	733.33	-198.57	-288.83	364.19	-42.746	-358.31	1033.6	156.81	-857.16	277.91	120.57	-521.49	368.9	123.2	-302.21	193.58	-33.598	-297.38	279.38	-37.89	-336.54	1467.3	-10.121	-307.74	751.99	-189.71	-385.49	815.9	-214.82	-229.8	30.465	-126.4	-595.83	322.95	118.94	-271.46	273.65	-95.668	-182.78	45.261	-39.255	-799.5	247.63	164.31	-758.47	236.88	71.618	-402.34	1695.6	-50.356	-325.18	509.32	-10.624	-401.67	1696.5	91.477	-392.74	1323.7	267.45	-435.32	1166.5	318.49	-323.63	94.162	6.9196	-549.8	1440.7	145.83	-343.05	1034.4	-155.83	-470.9	795.44	214.1	-463.91	707.26	209.67	-552.36	1201.5	-0.51383	-408.46	44.205	-51.306	-509.83	1151.5	-215.96	-344.22	67.22	-93.789	-463.57	1135.8	229.08
402	2.01	-287.85	867.2	374.81	-127.37	31.557	-58.273	-328.89	506.69	-151.06	-281.53	905.16	310.38	-371.42	1502.4	191.27	-340.64	1041.5	333.98	-226.59	1680.3	68.466	-436.23	1347.8	-259.28	-399.86	1051.8	-328.96	-357.04	889.16	-351.93	-349.35	899.88	367.48	-481.77	1181	-304.9	-267.08	1296.2	-8.9787	-440.01	502.63	204.82	-411.99	1530.1	-177.08	-428.79	921.87	-338.55	-445.36	624.51	204.62	-583.44	320.21	181.01	-345.73	926.51	-296.14	-494.57	1558.5	25.256	-229.67	1683.1	-36.48	-705.05	47.845	124.65	-441.3	487.37	56.142	-721.68	98.712	108.61	-394.85	716.1	208.29	-769.74	112.72	193.33	-337.7	651.64	-178.48	-566.19	1076	-62.313	-568.76	1064.1	47.161	-656.91	279.4	115.28	-359.25	733.76	-198.78	-287.43	363.99	-42.978	-353.38	1034.1	156.8	-845.81	279.05	120.52	-509.57	369.88	122.75	-301.63	193.44	-33.685	-296.38	279.23	-38.045	-331.05	1467.8	-10.504	-303.86	752.08	-189.84	-381.21	816.48	-215	-229.84	30.436	-126.46	-584.04	324.07	118.62	-270.49	273.32	-95.813	-182.77	45.269	-39.374	-787.77	249.22	164.3	-746.87	238.21	71.611	-396.71	1696.2	-50.758	-323.1	509.23	-10.948	-396.06	1697.1	91.084	-387.95	1324.4	266.93	-431.17	1167.3	317.79	-323.5	94.187	6.8789	-544.48	1441.7	145.13	-338.12	1034.9	-155.94	-462.97	795.53	213.73	-454.8	707.45	209.26	-547.17	1202.3	-0.8624	-408.47	44.213	-51.297	-503.97	1152.1	-217.19	-344.18	67.215	-93.814	-459.41	1136.7	228.33
403	2.015	-285.57	867.2	374.6	-127.39	31.502	-58.425	-326.7	506.68	-151.3	-278.95	905.06	310.13	-366.01	1503.2	190.92	-337.28	1041.8	333.53	-220.99	1680.9	68.111	-430.42	1348.5	-259.91	-392.58	1053.1	-329.51	-348.22	891.02	-352.2	-346.93	900.25	367.11	-475.6	1181.7	-305.99	-261.84	1296.6	-9.2671	-428.19	503.58	204.25	-406.28	1530.7	-177.44	-420.33	922.88	-338.91	-435.17	624.91	204.08	-571.5	321.52	180.73	-337.32	928.54	-296.47	-488.99	1559.3	24.773	-224.06	1683.7	-36.839	-691.8	49.594	125.99	-429.81	488.19	55.5	-708.78	100.29	109.53	-385.95	717.21	207.89	-756.69	114.58	194.29	-334.47	651.9	-178.76	-561.31	1076.8	-62.356	-563.69	1064.7	47.089	-645.02	280.45	115.16	-355.48	734.17	-198.97	-286.02	363.77	-43.207	-348.45	1034.7	156.81	-834.3	279.73	120.5	-497.56	370.86	122.35	-301.04	193.31	-33.772	-295.36	279.07	-38.198	-325.59	1468.2	-10.858	-300.02	752.13	-189.97	-376.96	817.05	-215.17	-229.87	30.411	-126.52	-572.12	325.09	118.34	-269.55	272.99	-95.973	-182.76	45.276	-39.486	-775.81	250.45	164.28	-735.03	239.26	71.598	-391.1	1696.8	-51.144	-321.05	509.14	-11.239	-390.46	1697.6	90.707	-383.21	1325	266.44	-427.08	1168.1	317.1	-323.36	94.208	6.8435	-539.18	1442.6	144.48	-333.21	1035.4	-156.08	-455.08	795.7	213.35	-445.73	707.74	208.83	-542	1203.1	-1.1977	-408.48	44.225	-51.282	-498.09	1152.7	-218.41	-344.14	67.215	-93.83	-455.27	1137.6	227.59
404	2.02	-283.27	867.22	374.39	-127.41	31.458	-58.566	-324.55	506.67	-151.52	-276.38	904.98	309.9	-360.63	1503.8	190.58	-333.94	1042.1	333.1	-215.4	1681.4	67.761	-424.58	1349.2	-260.5	-385.28	1054.4	-330.01	-339.38	892.9	-352.44	-344.5	900.63	366.75	-469.38	1182.5	-307.06	-256.63	1297	-9.5188	-416.46	504.63	203.68	-400.58	1531.3	-177.78	-411.86	923.9	-339.26	-425.03	625.42	203.52	-559.46	322.76	180.49	-328.94	930.56	-296.75	-483.44	1560	24.31	-218.46	1684.2	-37.194	-677.98	51.233	127.11	-418.38	489.09	54.858	-695.44	101.68	110.31	-377.08	718.39	207.52	-743.2	116.09	195.13	-331.29	652.13	-179.02	-556.44	1077.6	-62.373	-558.62	1065.4	47.045	-632.95	281.32	115.05	-351.76	734.54	-199.15	-284.59	363.55	-43.429	-343.51	1035.3	156.84	-822.63	279.97	120.5	-485.48	371.81	121.98	-300.44	193.17	-33.859	-294.33	278.91	-38.35	-320.16	1468.7	-11.185	-296.2	752.13	-190.1	-372.75	817.58	-215.34	-229.91	30.388	-126.57	-560.09	326.01	118.1	-268.63	272.66	-96.147	-182.75	45.282	-39.588	-763.63	251.29	164.24	-722.97	240.03	71.579	-385.51	1697.4	-51.515	-319.03	509.07	-11.493	-384.87	1698.2	90.344	-378.5	1325.6	265.98	-423.05	1168.8	316.45	-323.21	94.226	6.8149	-533.9	1443.5	143.86	-328.35	1035.9	-156.25	-447.22	795.94	212.96	-436.7	708.11	208.39	-536.86	1203.8	-1.5231	-408.48	44.24	-51.26	-492.18	1153.2	-219.61	-344.1	67.22	-93.835	-451.15	1138.5	226.87
405	2.025	-280.96	867.27	374.2	-127.43	31.422	-58.693	-322.45	506.64	-151.72	-273.8	904.93	309.67	-355.28	1504.5	190.26	-330.62	1042.5	332.7	-209.82	1681.9	67.415	-418.71	1349.9	-261.07	-377.95	1055.7	-330.47	-330.55	894.79	-352.65	-342.06	901.02	366.39	-463.13	1183.2	-308.09	-251.46	1297.4	-9.7367	-404.81	505.79	203.11	-394.91	1531.8	-178.09	-403.38	924.93	-339.6	-414.94	626.02	202.95	-547.32	323.93	180.26	-320.57	932.56	-296.97	-477.93	1560.8	23.865	-212.88	1684.7	-37.544	-663.63	52.745	128.02	-407	490.05	54.217	-681.68	102.88	110.93	-368.27	719.65	207.15	-729.3	117.25	195.83	-328.18	652.33	-179.25	-551.58	1078.3	-62.37	-553.57	1066	47.025	-620.71	282.01	114.95	-348.1	734.88	-199.3	-283.15	363.3	-43.643	-338.56	1035.9	156.88	-810.8	279.77	120.52	-473.34	372.75	121.63	-299.82	193.03	-33.946	-293.28	278.74	-38.499	-314.75	1469.1	-11.483	-292.43	752.07	-190.25	-368.57	818.08	-215.49	-229.94	30.369	-126.62	-547.93	326.83	117.87	-267.72	272.32	-96.335	-182.75	45.286	-39.68	-751.24	251.76	164.19	-710.69	240.53	71.551	-379.94	1698	-51.87	-317.03	509	-11.706	-379.29	1698.8	89.997	-373.83	1326.2	265.55	-419.07	1169.6	315.81	-323.05	94.239	6.7939	-528.64	1444.5	143.28	-323.51	1036.4	-156.47	-439.39	796.24	212.56	-427.71	708.56	207.92	-531.74	1204.6	-1.8418	-408.49	44.261	-51.232	-486.25	1153.8	-220.77	-344.05	67.23	-93.831	-447.06	1139.4	226.17
406	2.03	-278.65	867.34	374.01	-127.44	31.392	-58.806	-320.38	506.61	-151.89	-271.22	904.92	309.46	-349.96	1505.1	189.96	-327.34	1042.8	332.32	-204.26	1682.4	67.074	-412.81	1350.6	-261.6	-370.6	1057	-330.88	-321.73	896.69	-352.83	-339.62	901.42	366.04	-456.85	1183.9	-309.08	-246.3	1297.8	-9.9238	-393.25	507.03	202.52	-389.26	1532.4	-178.38	-394.9	925.99	-339.93	-404.92	626.72	202.38	-535.08	325	180.05	-312.24	934.54	-297.15	-472.43	1561.5	23.442	-207.33	1685.2	-37.888	-648.79	54.119	128.73	-395.69	491.08	53.58	-667.52	103.87	111.41	-359.5	720.97	206.8	-715.01	118.05	196.41	-325.13	652.47	-179.45	-546.71	1078.9	-62.35	-548.52	1066.7	47.026	-608.3	282.52	114.84	-344.5	735.17	-199.43	-281.68	363.05	-43.846	-333.59	1036.6	156.92	-798.82	279.13	120.56	-461.14	373.68	121.31	-299.18	192.89	-34.029	-292.22	278.57	-38.645	-309.37	1469.5	-11.755	-288.69	751.96	-190.4	-364.46	818.54	-215.63	-229.97	30.355	-126.66	-535.68	327.55	117.64	-266.82	271.99	-96.533	-182.74	45.289	-39.76	-738.66	251.86	164.13	-698.21	240.75	71.512	-374.39	1698.5	-52.21	-315.04	508.94	-11.876	-373.72	1699.3	89.665	-369.2	1326.8	265.14	-415.15	1170.3	315.2	-322.89	94.246	6.7811	-523.4	1445.4	142.74	-318.7	1036.9	-156.72	-431.61	796.61	212.16	-418.77	709.09	207.44	-526.64	1205.3	-2.1568	-408.49	44.286	-51.198	-480.29	1154.3	-221.91	-344.01	67.244	-93.816	-442.99	1140.2	225.48
